<?xml version="1.0" standalone="no"?>
<!DOCTYPE svg PUBLIC "-//W3C//DTD SVG 20010904//EN"
 "http://www.w3.org/TR/2001/REC-SVG-20010904/DTD/svg10.dtd">
<svg version="1.0" xmlns="http://www.w3.org/2000/svg"
 width="390.000000pt" height="366.000000pt" viewBox="0 0 390.000000 366.000000"
 preserveAspectRatio="xMidYMid meet">

<g transform="translate(0.000000,366.000000) scale(0.100000,-0.100000)"
fill="#000000" stroke="none">
<path d="M1938 3523 c6 -2 18 -2 25 0 6 3 1 5 -13 5 -14 0 -19 -2 -12 -5z"/>
<path d="M1786 3368 c-15 -13 -29 -37 -32 -55 -8 -43 30 -83 79 -83 35 0 77
23 65 36 -4 4 -13 2 -20 -3 -28 -21 -49 -22 -68 -3 -26 26 -26 72 1 95 17 16
25 17 50 8 30 -12 37 -5 17 15 -19 19 -65 14 -92 -10z"/>
<path d="M1925 3315 c0 -68 2 -75 20 -75 18 0 20 7 20 75 0 69 -2 75 -20 75
-19 0 -20 -6 -20 -75z"/>
<path d="M2029 3361 c-58 -58 -26 -135 53 -129 55 4 84 40 74 93 -6 29 -14 39
-41 51 -47 19 -52 18 -86 -15z m81 -10 c23 -44 3 -111 -33 -111 -33 0 -52 91
-25 118 18 18 46 14 58 -7z"/>
<path d="M2205 3348 c3 -13 -1 -45 -9 -72 -15 -49 -14 -66 5 -66 5 0 9 15 10
33 0 17 4 41 8 51 6 16 11 13 33 -25 13 -24 28 -52 31 -62 8 -21 27 -13 27 11
0 10 9 41 19 69 16 44 17 52 4 57 -26 10 -28 7 -25 -39 5 -56 -12 -59 -35 -7
-22 47 -42 72 -60 72 -9 0 -12 -7 -8 -22z"/>
<path d="M1655 3348 c-2 -7 -8 -36 -14 -63 -5 -28 -13 -58 -16 -68 -5 -12 -2
-17 9 -17 10 0 16 9 16 24 0 14 4 27 9 30 5 3 7 15 4 26 -3 11 0 20 6 20 6 0
11 -6 11 -13 0 -20 30 -77 40 -77 36 0 38 12 10 54 -16 24 -34 55 -39 69 -11
28 -29 36 -36 15z"/>
<path d="M1542 3333 c-8 -3 -10 -9 -4 -16 11 -14 25 -67 17 -67 -2 0 -24 14
-49 31 -28 20 -51 29 -61 25 -12 -4 -14 -10 -7 -19 6 -6 16 -40 23 -73 10 -51
15 -60 31 -56 22 5 22 7 4 35 -7 12 -16 34 -20 49 l-6 28 52 -40 c57 -43 85
-52 73 -22 -5 9 -13 43 -18 75 -6 31 -13 57 -16 56 -3 0 -12 -3 -19 -6z"/>
<path d="M2397 3271 c-15 -22 -39 -48 -53 -57 -21 -14 -23 -19 -10 -26 16 -9
57 25 70 57 12 32 16 10 8 -37 l-9 -46 84 -31 c77 -30 103 -33 103 -12 0 5
-10 6 -23 4 -13 -3 -29 2 -35 10 -14 16 -4 49 30 99 18 26 18 27 -4 34 -26 8
-32 5 -33 -16 -3 -30 -41 -95 -55 -95 -12 0 -16 17 -20 74 -3 41 -10 76 -16
78 -6 2 -23 -14 -37 -36z"/>
<path d="M1245 3219 c-22 -12 -41 -23 -43 -24 -2 -2 8 -20 22 -42 31 -47 43
-93 26 -93 -7 0 -37 18 -66 41 -29 22 -57 38 -62 35 -6 -4 6 -117 17 -155 1
-2 8 2 16 9 11 9 12 16 2 31 -8 13 -8 22 -1 29 14 14 44 2 44 -17 0 -10 19 -4
68 23 80 44 99 61 107 95 5 19 0 33 -17 52 -32 36 -65 41 -113 16z m91 -56 c8
-28 -5 -56 -27 -61 -8 -1 -24 17 -38 43 -19 36 -21 48 -11 60 11 13 15 13 41
0 16 -9 32 -27 35 -42z m-176 -84 c0 -5 -4 -9 -10 -9 -5 0 -10 7 -10 16 0 8 5
12 10 9 6 -3 10 -10 10 -16z"/>
<path d="M1980 3187 c0 -8 -13 -38 -30 -68 -16 -30 -30 -62 -30 -72 0 -19 -21
-30 -85 -46 -22 -6 -65 -27 -95 -47 -113 -74 -165 -89 -250 -69 l-35 7 20 -22
c33 -37 76 -54 142 -55 51 -1 68 -6 87 -24 19 -18 40 -24 90 -28 36 -3 66 -9
66 -13 0 -5 -31 -41 -68 -81 -73 -79 -97 -113 -87 -129 13 -21 35 -8 53 33 11
23 47 68 80 101 42 41 58 63 55 77 -4 13 2 21 18 27 41 15 0 26 -88 23 -49 -1
-83 2 -83 7 0 6 9 8 20 5 25 -7 26 5 3 23 -17 12 -17 13 0 20 12 4 22 0 31
-11 7 -10 21 -15 37 -13 21 3 18 7 -25 28 -44 21 -47 25 -31 37 10 7 16 16 12
19 -4 4 -22 -5 -41 -20 -40 -30 -69 -34 -64 -8 2 9 17 22 35 27 17 6 40 18 50
27 11 10 39 24 63 33 96 33 108 43 136 105 15 33 31 60 36 60 6 0 7 -8 3 -17
-4 -10 -8 -25 -10 -33 -5 -32 -18 -60 -27 -60 -5 0 -4 -8 1 -19 6 -10 7 -22 3
-27 -4 -5 1 -2 11 5 9 7 17 22 17 33 0 28 18 58 35 58 19 0 19 0 -9 65 -23 51
-46 72 -46 42z"/>
<path d="M2090 3176 c0 -13 7 -31 15 -40 16 -15 4 -33 -15 -21 -6 3 -7 -1 -4
-10 5 -11 -6 -29 -31 -54 -33 -34 -35 -41 -24 -59 10 -16 10 -24 1 -35 -10
-12 -9 -16 4 -21 11 -4 14 -13 10 -31 -6 -23 -5 -23 21 -10 20 10 31 11 40 3
19 -16 16 -38 -6 -38 -10 0 -21 -7 -25 -15 -4 -11 1 -15 18 -15 25 0 37 -18
35 -53 -1 -20 -2 -20 -8 3 -8 28 -37 34 -35 8 3 -28 -3 -22 -30 37 -26 58 -40
68 -49 35 -3 -13 0 -20 9 -20 14 0 25 -21 38 -72 5 -21 3 -28 -8 -28 -10 0
-13 6 -10 15 4 8 1 15 -5 15 -6 0 -11 -5 -11 -12 0 -6 -7 -20 -16 -29 -9 -10
-16 -29 -16 -42 0 -19 -5 -23 -24 -19 -19 3 -21 7 -11 18 32 35 35 42 26 55
-7 12 -9 12 -9 -1 -1 -21 -55 -61 -87 -64 -39 -4 -49 -40 -16 -55 26 -12 47
-6 38 10 -4 5 -1 9 5 9 7 0 10 -7 6 -15 -7 -18 8 -20 22 -2 7 7 36 12 82 12
59 -1 73 2 81 17 10 19 -5 26 -16 8 -8 -14 -35 -13 -35 1 0 6 7 9 15 5 9 -3
15 0 15 9 0 20 -27 19 -38 -2 -7 -11 -15 -14 -28 -8 -18 7 -18 7 -1 14 10 4
18 10 18 14 -2 19 0 21 9 7 8 -12 11 -11 16 8 7 23 7 23 21 2 8 -11 21 -20 30
-20 12 0 14 -9 8 -52 -3 -29 -8 -63 -9 -75 -2 -13 2 -23 9 -23 7 0 16 32 23
83 7 45 15 97 18 116 7 37 -13 170 -32 217 -11 25 -10 38 1 70 18 50 18 86 1
128 -18 44 -36 55 -36 22z m30 -447 c0 -11 -4 -17 -10 -14 -5 3 -10 13 -10 21
0 8 5 14 10 14 6 0 10 -9 10 -21z"/>
<path d="M2691 3139 c-13 -27 -33 -55 -43 -60 -24 -13 -19 -20 35 -47 61 -30
104 -22 124 25 7 19 11 43 8 54 -6 18 -79 79 -94 79 -4 0 -17 -23 -30 -51z
m87 -28 c4 -43 -28 -80 -63 -73 -31 6 -31 15 1 69 31 53 57 55 62 4z"/>
<path d="M2855 3053 c-24 -45 -52 -73 -72 -73 -15 -1 -12 -5 12 -26 17 -14 42
-31 56 -39 24 -13 29 -13 39 0 10 12 9 15 -8 15 -50 0 -67 25 -36 51 14 11 18
10 30 -6 13 -17 16 -18 24 -5 15 23 12 30 -10 30 -18 0 -19 3 -10 20 6 11 18
20 26 20 9 0 18 -9 21 -20 6 -23 23 -27 23 -6 0 14 -58 66 -73 66 -4 0 -13
-12 -22 -27z"/>
<path d="M964 3034 c-21 -15 -41 -28 -43 -30 -2 -1 15 -25 38 -52 73 -86 36
-120 -39 -35 -39 44 -43 46 -55 30 -12 -16 -8 -23 30 -58 24 -22 45 -49 47
-60 2 -15 18 -5 82 55 75 70 79 76 72 108 -7 38 -38 68 -71 68 -12 0 -40 -12
-61 -26z m96 -44 c12 -29 0 -70 -19 -70 -10 0 -85 89 -80 94 38 31 81 20 99
-24z"/>
<path d="M3011 2957 c-15 -15 -14 -27 3 -21 8 3 17 0 21 -6 8 -13 -27 -55 -68
-80 l-28 -18 25 -28 c15 -16 24 -22 21 -14 -3 10 12 32 39 59 42 41 66 47 66
15 0 -8 7 -14 16 -14 21 0 17 9 -37 68 -35 38 -49 48 -58 39z"/>
<path d="M1972 2926 c1 -10 8 -17 13 -17 15 1 12 24 -3 29 -9 3 -13 -2 -10
-12z"/>
<path d="M1838 2914 c-36 -19 -35 -27 6 -42 29 -11 40 -10 70 5 43 20 45 30
10 43 -34 13 -54 12 -86 -6z"/>
<path d="M801 2876 c-14 -15 -21 -33 -19 -48 3 -20 10 -24 58 -28 58 -5 70
-18 33 -35 -13 -5 -23 -16 -23 -23 0 -34 -63 -19 -75 18 -10 33 -49 25 -81
-17 -15 -20 -23 -38 -17 -40 46 -16 116 -93 84 -93 -5 0 -12 -11 -15 -25 -8
-31 -26 -31 -76 -2 -43 24 -51 46 -20 54 11 3 17 9 14 14 -11 19 -32 7 -50
-28 -10 -21 -27 -50 -37 -65 -18 -27 -17 -27 12 -49 52 -38 49 -52 -8 -47
l-49 5 -21 -54 c-26 -67 -26 -63 2 -63 12 0 42 -12 67 -26 42 -24 45 -24 57
-8 15 21 17 34 3 34 -27 0 -120 43 -120 56 0 22 24 27 83 17 92 -16 98 -4 32
65 -73 76 -44 110 40 47 37 -29 50 -34 56 -23 5 7 9 17 9 22 0 5 18 35 40 68
44 66 47 73 27 65 -19 -7 -41 8 -32 22 4 7 18 10 35 6 24 -5 33 1 74 46 43 48
46 53 32 73 -12 17 -23 21 -66 19 -43 -2 -51 0 -48 14 2 10 14 20 27 23 20 5
21 7 9 18 -12 9 -19 7 -37 -12z m-43 -149 c2 -11 -3 -17 -17 -17 -23 0 -35 15
-26 31 10 15 39 6 43 -14z"/>
<path d="M1340 2836 c-69 -20 -167 -73 -214 -117 -24 -21 -57 -65 -74 -96 -32
-62 -49 -123 -34 -123 13 0 42 34 42 51 0 29 66 128 111 168 26 22 70 52 98
66 54 27 138 39 134 19 -1 -7 11 -14 27 -18 26 -5 30 -10 30 -39 0 -18 -5 -38
-11 -44 -6 -6 -13 -26 -14 -45 -2 -18 -3 -39 -4 -45 -1 -7 -10 -13 -21 -13
-23 0 -24 -1 -8 -34 11 -25 44 -44 56 -31 3 3 0 15 -7 26 -10 18 -10 24 5 40
11 12 14 27 10 44 -4 17 2 41 18 73 53 105 -8 156 -144 118z"/>
<path d="M1960 2841 c0 -6 4 -13 10 -16 6 -3 7 1 4 9 -7 18 -14 21 -14 7z"/>
<path d="M3090 2800 c-25 -22 -51 -40 -57 -40 -17 0 -16 -10 3 -31 16 -17 17
-17 34 4 24 29 33 19 19 -21 -8 -23 -7 -36 2 -54 13 -22 13 -22 22 20 7 34 12
42 31 42 51 0 59 40 19 88 l-28 31 -45 -39z m70 -24 c0 -19 -17 -29 -37 -22
-12 5 -13 9 -3 21 16 19 40 19 40 1z"/>
<path d="M2311 2804 c-28 -36 -26 -83 4 -128 22 -33 24 -41 15 -88 -6 -28 -8
-53 -6 -55 2 -2 14 1 28 6 21 8 24 14 20 45 -3 28 -1 36 12 36 22 0 20 10 -10
41 -15 16 -28 43 -31 67 -5 35 -2 42 21 57 19 13 37 16 70 11 38 -6 43 -10 39
-27 -4 -12 1 -25 13 -34 16 -12 17 -17 6 -35 -10 -17 -10 -21 3 -26 48 -19 52
30 7 79 -14 15 -21 27 -16 27 19 0 56 -43 76 -86 17 -40 49 -77 36 -43 -26 70
-20 75 22 17 18 -25 30 -53 30 -73 0 -17 3 -35 8 -41 4 -5 -3 2 -15 16 -13 14
-23 31 -23 38 0 15 -16 16 -26 0 -4 -6 -3 -8 3 -5 5 3 19 -14 31 -39 12 -25
27 -51 32 -57 5 -7 33 -41 62 -76 83 -100 108 -140 108 -170 0 -40 28 -116 51
-137 29 -26 36 -8 10 27 -20 27 -21 32 -7 42 14 11 14 18 -2 72 -26 84 -36
100 -119 187 -42 44 -73 85 -73 97 0 26 11 26 58 1 50 -26 100 -73 159 -150
78 -101 98 -150 124 -300 16 -97 55 -210 89 -262 32 -49 119 -140 158 -165 34
-23 29 -44 -10 -36 -69 13 -124 54 -193 143 -25 32 -45 67 -45 77 -1 22 -58
143 -59 125 -1 -7 11 -35 25 -63 14 -28 24 -55 22 -61 -4 -10 -26 31 -78 145
-19 42 -70 110 -70 95 0 -3 11 -25 24 -49 14 -24 34 -73 46 -108 12 -35 27
-73 34 -85 24 -45 80 -122 105 -143 20 -17 23 -24 14 -34 -10 -9 -20 -6 -48
15 -19 15 -35 31 -35 37 0 5 -8 9 -18 9 -31 0 -92 83 -92 125 0 9 -4 13 -10
10 -16 -10 -12 -33 15 -75 14 -22 21 -40 16 -40 -15 0 -42 30 -52 58 -5 14
-12 22 -15 19 -3 -3 2 -19 11 -36 15 -30 15 -31 -6 -31 -12 0 -23 8 -26 20 -4
15 -11 18 -28 14 -13 -3 -26 -1 -30 5 -3 6 -21 18 -38 25 -39 17 -124 91 -116
100 14 15 93 -8 124 -35 18 -16 38 -29 44 -29 6 0 11 -5 11 -12 0 -6 3 -9 6
-5 4 3 -8 24 -25 46 -42 53 -61 101 -61 155 0 31 -7 56 -24 81 -28 41 -51 135
-42 170 9 34 -10 40 -22 7 -19 -47 -16 -76 11 -130 17 -32 29 -74 32 -108 2
-30 7 -64 10 -75 6 -17 4 -18 -21 -9 -50 20 -83 50 -110 105 -14 30 -30 55
-34 55 -16 0 47 -207 73 -239 20 -24 129 -91 148 -91 10 0 23 -9 29 -20 13
-24 16 -24 -45 -2 -62 23 -117 56 -108 65 3 4 -1 7 -11 7 -14 0 -53 68 -79
140 -4 12 -6 12 -6 -2 -1 -22 -49 -78 -66 -78 -24 0 -28 21 -6 41 30 28 47 93
33 125 -16 33 -15 107 0 122 7 7 22 12 35 12 18 0 29 -13 53 -65 16 -35 31
-73 33 -84 2 -11 7 -24 11 -28 5 -5 6 4 2 19 -6 26 -5 27 20 17 22 -8 25 -7
17 3 -6 7 -14 27 -17 45 -4 17 -14 37 -22 44 -12 10 -13 6 -8 -22 5 -31 3 -30
-19 16 -25 49 -25 50 -7 85 9 19 21 46 25 60 8 27 43 70 57 70 4 0 8 -7 8 -14
0 -8 27 -57 60 -108 33 -51 66 -104 72 -118 7 -14 17 -32 24 -40 6 -8 18 -40
25 -70 7 -30 15 -46 16 -35 2 11 -12 67 -30 125 -30 95 -41 114 -102 188 -38
45 -74 82 -82 82 -7 0 -18 -9 -25 -20 -17 -26 -28 -25 -28 3 0 26 10 42 29 49
12 3 10 9 -7 26 -12 12 -22 34 -22 50 l0 27 -13 -25 c-12 -22 -11 -27 5 -43
22 -22 23 -36 3 -43 -10 -4 -15 -20 -15 -45 0 -40 -7 -48 -27 -28 -8 8 -11 1
-11 -27 0 -58 -1 -66 -11 -60 -4 3 -14 33 -20 67 -11 56 -57 146 -69 135 -2
-3 1 -19 7 -37 16 -47 13 -84 -8 -103 -24 -21 -56 -8 -67 26 -9 30 -22 38 -62
38 -35 0 -72 -15 -84 -34 -22 -32 6 -35 38 -5 22 21 25 21 57 6 53 -26 115
-129 117 -195 0 -39 -26 -87 -74 -136 l-46 -48 0 -199 c0 -126 4 -199 10 -199
6 0 10 6 10 13 0 8 9 24 20 37 12 13 18 30 16 37 -7 17 3 43 16 43 6 0 30 13
54 30 24 16 44 25 44 21 0 -5 -7 -11 -15 -15 -23 -8 -18 -23 10 -28 22 -5 24
-2 19 18 -7 28 3 30 52 9 23 -9 33 -19 28 -26 -4 -8 -3 -9 5 -5 22 14 177 8
215 -8 112 -47 117 -154 10 -225 -54 -35 -151 -74 -165 -66 -21 13 -5 28 64
60 89 41 121 65 137 105 10 25 10 34 -4 55 -25 38 -60 48 -126 36 -44 -7 -60
-6 -78 5 -20 13 -23 13 -28 0 -3 -8 -3 -20 1 -25 3 -6 8 -38 11 -72 3 -46 1
-60 -8 -57 -18 6 -23 49 -6 59 10 6 10 11 1 20 -10 10 -14 9 -19 -4 -5 -13 -9
-14 -25 -4 -15 9 -21 8 -32 -7 -8 -11 -19 -16 -25 -12 -17 11 -26 77 -13 97
15 26 14 34 -4 19 -8 -7 -15 -17 -15 -22 0 -6 -11 -19 -24 -29 -16 -13 -29
-38 -37 -73 -20 -89 5 -116 42 -45 16 33 25 40 41 36 12 -3 27 1 36 9 17 18
27 10 36 -28 5 -22 3 -26 -9 -22 -10 4 -15 0 -15 -13 0 -29 10 -34 37 -16 24
16 24 16 17 -13 -4 -16 -11 -34 -16 -41 -12 -15 -7 -55 7 -60 6 -2 11 7 10 19
0 13 5 24 10 25 6 1 10 -7 9 -17 0 -14 6 -20 23 -20 13 0 23 4 23 8 0 5 38 23
84 40 107 41 166 98 166 162 0 49 -20 91 -54 114 -41 26 -32 39 22 34 33 -3
70 -18 118 -46 75 -45 98 -51 108 -27 5 13 15 11 63 -15 61 -31 113 -39 131
-17 8 9 -7 34 -55 97 -82 107 -92 127 -153 305 -109 320 -227 500 -370 564
-35 15 -49 31 -74 78 -27 50 -37 60 -76 73 -25 9 -67 30 -94 48 -40 26 -60 32
-102 32 -45 0 -56 -4 -73 -26z m179 -521 c0 -27 -20 -73 -32 -73 -4 0 -8 8 -8
18 0 10 -5 23 -11 29 -9 9 -6 19 12 41 25 30 39 25 39 -15z m-30 -209 c0 -23
-20 -57 -48 -80 -20 -16 -23 -24 -15 -40 6 -10 13 -32 17 -49 11 -43 -7 -21
-35 43 l-22 54 44 42 c49 48 59 53 59 30z m85 -152 c9 -41 59 -97 115 -129 27
-15 46 -31 44 -35 -7 -12 -122 -10 -129 2 -3 5 -32 17 -63 26 -63 18 -82 30
-82 49 0 17 93 125 102 119 3 -2 9 -17 13 -32z m-135 -89 c0 -21 -16 -15 -34
12 -24 37 -19 51 9 25 14 -13 25 -29 25 -37z m410 -53 c0 -5 -2 -10 -4 -10 -3
0 -8 5 -11 10 -3 6 -1 10 4 10 6 0 11 -4 11 -10z m-465 -120 c3 -5 1 -10 -4
-10 -6 0 -11 5 -11 10 0 6 2 10 4 10 3 0 8 -4 11 -10z m463 -22 c19 -19 14
-63 -10 -86 -28 -25 -134 -82 -155 -82 -12 0 -14 8 -9 38 4 20 9 56 13 80 4
32 11 46 27 52 32 13 120 12 134 -2z"/>
<path d="M2005 2799 c-4 -6 -5 -13 -2 -16 7 -7 27 6 27 18 0 12 -17 12 -25 -2z"/>
<path d="M1294 2775 c-28 -14 -68 -42 -88 -62 -48 -48 -95 -146 -105 -214 -6
-44 -17 -68 -63 -129 -68 -91 -149 -231 -168 -291 -8 -24 -30 -66 -48 -94
l-35 -50 8 40 c4 22 10 45 14 50 10 14 68 155 76 185 7 24 6 24 -7 5 -8 -11
-22 -40 -32 -65 -27 -67 -50 -114 -58 -120 -3 -3 -16 -30 -27 -60 -25 -65
-111 -160 -111 -121 0 12 7 24 15 27 8 4 15 16 15 28 0 25 35 86 50 86 5 0 10
6 10 13 0 8 10 23 23 35 23 22 26 28 102 182 26 52 56 103 68 113 12 10 16 16
9 12 -6 -3 -3 10 9 29 12 20 18 36 14 36 -18 0 -80 -91 -145 -215 -29 -55 -64
-114 -77 -132 -12 -17 -23 -36 -23 -41 0 -6 -12 -21 -28 -34 -17 -14 -26 -30
-24 -42 3 -13 0 -17 -11 -13 -16 6 -37 -10 -37 -30 0 -7 7 -10 15 -7 8 4 15 2
15 -3 0 -14 -31 -39 -57 -47 -35 -11 -28 -30 7 -22 19 3 29 2 25 -4 -3 -6 -15
-10 -26 -10 -10 0 -19 -6 -20 -12 0 -7 -4 -3 -9 10 -12 29 -23 28 -40 -3 -10
-19 -21 -25 -48 -25 -30 0 -33 2 -21 16 7 8 21 13 31 11 10 -3 18 0 18 7 0 6
14 20 31 30 17 10 28 24 25 31 -2 7 16 32 40 56 59 59 147 172 180 234 14 28
49 94 76 149 28 54 67 117 87 139 23 26 29 36 15 29 -31 -16 -78 -79 -204
-267 -149 -224 -216 -310 -292 -379 l-63 -58 24 -19 c27 -22 79 -24 135 -4 36
13 41 12 64 -5 26 -21 59 -19 99 6 19 12 22 12 28 -6 4 -11 15 -25 27 -31 16
-9 24 -7 41 9 41 37 85 54 108 41 31 -16 100 13 140 59 37 42 82 134 82 168 0
14 4 27 10 31 7 4 8 -11 4 -43 -7 -53 12 -158 33 -177 9 -9 18 -4 39 21 34 39
41 40 41 4 0 -16 6 -37 14 -48 17 -22 39 -14 64 25 15 21 14 22 -11 16 -46
-12 -56 40 -41 218 6 63 10 77 24 77 9 0 19 -3 23 -6 10 -10 -4 -34 -16 -27
-7 4 -8 0 -4 -11 4 -10 7 -50 7 -89 0 -55 3 -68 12 -59 8 8 12 52 12 127 1 63
4 115 9 115 17 0 5 21 -18 32 -14 6 -25 15 -25 19 0 14 27 17 50 6 25 -13 35
-57 13 -57 -7 0 -13 -4 -13 -9 0 -13 28 -22 35 -11 4 6 15 10 25 10 26 0 48
45 54 108 6 62 -7 81 -64 98 -48 14 -80 5 -80 -24 0 -14 2 -15 9 -3 13 21 84
3 89 -22 4 -18 2 -18 -28 -2 -22 12 -36 13 -43 6 -6 -6 -17 -7 -26 -2 -9 5
-30 11 -48 14 -28 5 -35 2 -54 -24 -24 -34 -62 -149 -49 -149 5 0 12 10 16 23
10 33 72 127 84 127 24 0 31 -52 14 -99 -32 -86 -80 -118 -120 -80 -13 12 -26
30 -30 41 -7 24 33 109 85 177 31 42 41 64 41 92 0 45 -8 52 -40 36 -23 -12
-80 -132 -80 -170 0 -10 -4 -15 -10 -12 -5 3 -10 15 -10 26 0 10 -7 19 -15 19
-12 0 -15 10 -11 50 6 62 11 70 42 70 37 0 125 60 158 108 27 40 28 43 12 67
-9 14 -19 25 -21 25 -14 0 -86 -55 -77 -58 6 -2 25 7 42 20 26 19 32 20 40 8
8 -11 -2 -25 -37 -57 -25 -24 -51 -43 -57 -43 -6 0 -3 5 6 11 10 5 23 20 29
32 12 22 12 22 -10 3 -15 -14 -21 -15 -21 -6 0 8 -13 2 -32 -16 -18 -16 -27
-22 -21 -14 7 10 8 21 3 30 -7 11 -11 8 -21 -15 -6 -17 -13 -24 -16 -18 -8 21
64 129 117 176 27 25 69 54 92 65 37 18 40 21 17 22 -14 0 -48 -11 -75 -25z
m-245 -527 c-17 -34 -37 -70 -44 -78 -7 -8 -15 -26 -17 -40 -4 -29 -34 -39
-41 -13 -3 14 -6 12 -16 -12 -8 -20 -9 -31 -2 -33 19 -6 12 -22 -59 -122 -86
-122 -152 -181 -195 -176 -29 4 -37 26 -12 35 6 2 35 26 63 53 28 26 56 48 62
48 13 0 60 84 100 178 35 80 100 187 153 247 l34 39 3 -31 c2 -20 -8 -54 -29
-95z m310 45 c9 -16 12 -16 21 -3 13 20 46 0 42 -26 -5 -27 -9 -29 -37 -14
-27 14 -62 60 -46 60 6 0 15 -8 20 -17z m-207 -134 c3 -8 0 -46 -7 -84 -7 -39
-16 -86 -19 -106 -14 -82 -115 -182 -159 -158 -24 14 -22 29 18 103 19 36 30
66 25 66 -5 0 -16 -13 -25 -30 -20 -39 -93 -112 -127 -127 -16 -7 -28 -20 -28
-29 0 -15 2 -15 18 -3 9 8 27 20 40 27 18 10 22 10 22 -3 0 -8 -4 -15 -9 -15
-6 0 -30 -14 -55 -31 -83 -55 -91 -7 -14 76 28 31 62 71 75 90 13 19 26 35 29
35 7 0 -15 -38 -26 -45 -6 -3 -10 -16 -10 -28 0 -27 9 -17 48 50 22 36 26 50
15 46 -13 -5 -13 -2 3 23 9 16 24 34 31 40 13 11 53 109 74 182 l10 32 33 -48
c18 -27 35 -56 38 -63z m293 41 c-3 -5 -10 -10 -16 -10 -5 0 -9 5 -9 10 0 6 7
10 16 10 8 0 12 -4 9 -10z m-105 -9 c0 -5 3 -16 6 -25 4 -10 1 -16 -9 -16 -20
0 -29 14 -21 34 7 17 24 22 24 7z m-50 -118 c-6 -21 -15 -76 -20 -123 -7 -61
-14 -88 -27 -97 -24 -18 -32 -6 -43 62 -13 78 -3 134 24 145 12 4 32 20 45 34
31 33 35 28 21 -21z m-106 8 c8 -12 -3 -41 -15 -41 -5 0 -9 11 -9 25 0 25 14
34 24 16z"/>
<path d="M743 1866 c-21 -19 -33 -35 -28 -35 14 0 78 59 72 66 -3 2 -23 -11
-44 -31z"/>
<path d="M1101 2088 c-17 -17 -18 -24 -8 -36 10 -13 12 -12 15 9 2 13 9 30 14
37 18 21 0 13 -21 -10z"/>
<path d="M1060 2085 c-7 -9 -8 -15 -2 -15 5 0 12 7 16 15 3 8 4 15 2 15 -2 0
-9 -7 -16 -15z"/>
<path d="M1077 1959 c-10 -19 -29 -51 -42 -71 -18 -27 -21 -38 -11 -38 7 0 16
8 19 18 4 9 18 37 32 61 14 24 24 48 22 54 -2 6 -11 -5 -20 -24z"/>
<path d="M1232 2030 c0 -14 2 -19 5 -12 2 6 2 18 0 25 -3 6 -5 1 -5 -13z"/>
<path d="M1217 1943 c-4 -3 -7 -13 -7 -22 1 -13 3 -13 11 2 11 19 8 33 -4 20z"/>
<path d="M1965 2780 c-3 -5 -1 -10 4 -10 6 0 11 5 11 10 0 6 -2 10 -4 10 -3 0
-8 -4 -11 -10z"/>
<path d="M1310 2720 c-9 -6 -10 -10 -3 -10 6 0 15 5 18 10 8 12 4 12 -15 0z"/>
<path d="M3220 2723 c0 -7 -16 -23 -36 -37 -55 -37 -68 -60 -52 -93 24 -48 41
-51 108 -18 33 17 60 36 60 43 0 19 -25 14 -46 -9 -44 -49 -104 -54 -104 -8 0
21 85 83 100 74 16 -10 11 8 -10 35 -11 14 -20 20 -20 13z"/>
<path d="M1264 2688 c-4 -7 -4 -10 1 -6 4 4 15 2 23 -5 12 -10 14 -9 11 2 -7
20 -26 25 -35 9z"/>
<path d="M677 2616 c-7 -19 11 -32 24 -19 6 6 5 14 -4 22 -12 9 -16 8 -20 -3z"/>
<path d="M1796 2606 c-8 -6 -16 -23 -18 -38 -4 -24 -3 -26 13 -17 11 5 19 16
19 23 0 8 12 17 26 20 15 4 23 10 20 13 -11 11 -46 10 -60 -1z"/>
<path d="M2446 2596 c-8 -32 0 -52 41 -103 19 -23 35 -51 36 -62 1 -12 6 -20
12 -18 5 2 9 19 7 38 -1 19 -4 55 -5 80 -4 47 -12 69 -27 69 -14 0 -21 -32 -9
-46 6 -8 8 -14 4 -14 -14 0 -34 34 -35 58 0 29 -16 28 -24 -2z"/>
<path d="M1200 2590 c-8 -5 -12 -12 -9 -15 4 -3 12 1 19 10 14 17 11 19 -10 5z"/>
<path d="M2567 2593 c-11 -10 -8 -43 3 -43 6 0 10 11 10 25 0 26 -2 29 -13 18z"/>
<path d="M3248 2522 c-66 -36 -67 -37 -82 -17 -14 19 -15 19 -22 1 -10 -26 22
-49 59 -42 16 3 55 18 87 33 51 23 57 29 49 45 -12 23 -12 23 -91 -20z"/>
<path d="M2550 2526 c0 -8 5 -18 10 -21 6 -3 10 1 10 9 0 8 -4 18 -10 21 -5 3
-10 -1 -10 -9z"/>
<path d="M1752 2517 c-95 -23 -208 -172 -266 -352 -42 -133 -59 -370 -35 -510
6 -38 12 -89 13 -112 0 -22 4 -37 7 -31 3 5 18 -28 32 -74 29 -91 99 -206 157
-256 102 -87 263 -79 360 18 226 225 267 805 82 1138 -14 24 -49 70 -78 102
-45 48 -63 60 -112 74 -65 18 -96 19 -160 3z m165 -38 c90 -44 188 -197 235
-366 19 -68 22 -105 22 -293 0 -205 -1 -219 -26 -300 -43 -136 -81 -209 -148
-283 -75 -82 -146 -104 -244 -75 -105 32 -213 210 -258 427 -27 131 -21 394
11 521 73 289 247 447 408 369z"/>
<path d="M1670 2151 c0 -5 6 -11 14 -14 7 -3 22 -22 33 -43 23 -45 60 -58 142
-52 45 4 58 10 78 34 13 16 35 41 49 57 l25 27 -170 0 c-94 0 -171 -4 -171 -9z"/>
<path d="M1755 2000 c-3 -5 0 -13 8 -16 23 -9 152 0 152 11 0 14 -151 19 -160
5z"/>
<path d="M1790 1911 c0 -79 19 -424 26 -463 7 -47 30 -50 37 -5 6 34 14 173
22 383 l5 131 -45 0 -45 0 0 -46z"/>
<path d="M1695 1898 c-22 -12 -58 -24 -80 -28 -27 -4 -39 -10 -38 -20 3 -33
57 -355 59 -358 1 -2 21 -1 44 3 40 7 110 56 110 77 0 6 -16 -4 -35 -21 -20
-17 -39 -31 -43 -31 -7 0 -63 223 -62 250 0 9 22 33 48 53 53 42 76 73 67 87
-9 15 -25 12 -70 -12z m45 -11 c0 -7 -25 -32 -56 -56 l-56 -44 7 -46 c3 -25
15 -75 25 -111 32 -114 33 -120 10 -120 -12 0 -21 8 -24 23 -15 67 -36 189
-42 239 l-6 57 42 23 c24 13 52 29 64 35 27 16 36 16 36 0z"/>
<path d="M1895 1910 c-4 -6 24 -40 61 -75 l68 -64 -28 -116 c-17 -71 -34 -119
-43 -122 -8 -3 -25 5 -38 17 -14 13 -27 21 -31 18 -8 -9 37 -49 73 -64 40 -17
97 -18 110 -1 10 12 73 306 73 338 0 9 -6 19 -14 22 -11 4 -13 -3 -9 -31 3
-22 -8 -94 -26 -174 -17 -76 -31 -140 -31 -143 0 -3 -4 -5 -10 -5 -15 0 -12
36 9 147 11 54 22 124 25 156 5 57 5 57 -22 57 -15 0 -51 11 -80 25 -59 27
-77 30 -87 15z m101 -42 c37 -18 68 -37 70 -43 8 -19 -46 -309 -58 -316 -18
-12 -39 10 -29 30 4 9 17 54 29 101 39 159 42 141 -32 199 -93 73 -87 81 20
29z"/>
<path d="M1530 1833 c1 -56 59 -326 71 -334 18 -11 24 -3 11 13 -5 7 -15 38
-21 68 -6 30 -20 100 -31 154 -12 54 -19 105 -16 112 3 8 1 14 -4 14 -6 0 -10
-12 -10 -27z"/>
<path d="M1936 1428 c-20 -28 -20 -37 1 -60 16 -18 17 -18 41 4 l24 23 24 -29
c14 -15 27 -26 30 -23 11 11 -7 44 -31 57 -21 11 -27 11 -43 -3 -36 -33 -59
-12 -26 24 9 10 11 19 5 23 -5 4 -17 -4 -25 -16z"/>
<path d="M1683 1392 c-17 -15 -42 -34 -54 -43 -12 -8 -19 -20 -15 -27 7 -11
116 63 116 79 0 19 -17 15 -47 -9z"/>
<path d="M1743 1333 c-33 -6 -39 -50 -12 -79 18 -20 20 -27 10 -37 -10 -9 -16
-7 -32 12 -21 25 -33 24 -23 -2 9 -24 43 -31 71 -16 25 14 53 57 53 83 0 15
-27 47 -38 45 -4 -1 -17 -4 -29 -6z m42 -44 c0 -17 -6 -25 -23 -27 -30 -5 -42
26 -17 45 26 18 40 12 40 -18z"/>
<path d="M1863 1328 c-26 -13 -30 -40 -9 -58 8 -6 16 -24 18 -38 2 -21 9 -28
30 -30 36 -4 73 31 59 57 -6 10 -17 21 -25 24 -8 3 -16 16 -18 29 -3 26 -23
32 -55 16z m37 -27 c0 -11 -5 -23 -11 -27 -15 -9 -33 12 -26 30 9 23 37 20 37
-3z m39 -55 c10 -12 8 -17 -6 -25 -24 -12 -48 2 -40 23 8 20 31 21 46 2z"/>
<path d="M1995 1320 c-3 -5 3 -10 14 -10 11 0 23 5 26 10 3 6 -3 10 -14 10
-11 0 -23 -4 -26 -10z"/>
<path d="M3315 2458 c-27 -15 -58 -28 -67 -28 -21 0 -24 -23 -5 -39 9 -7 17
-7 24 0 5 5 35 20 65 33 51 20 55 24 44 42 -11 20 -12 19 -61 -8z"/>
<path d="M2855 2400 c4 -8 14 -22 20 -30 7 -8 20 -40 30 -70 9 -30 24 -62 32
-70 14 -13 14 -13 5 5 -6 11 -20 48 -32 82 -12 34 -31 70 -43 80 -14 12 -18
13 -12 3z"/>
<path d="M1320 2380 c0 -5 5 -10 11 -10 5 0 7 5 4 10 -3 6 -8 10 -11 10 -2 0
-4 -4 -4 -10z"/>
<path d="M3350 2370 c-25 -11 -56 -19 -69 -19 -18 -1 -22 -5 -16 -18 18 -43
55 -165 55 -182 0 -10 6 -24 14 -30 21 -18 32 6 12 28 -9 10 -16 22 -16 28 0
12 106 37 120 28 10 -6 15 37 5 47 -3 3 -33 -3 -66 -13 -58 -18 -98 -17 -68 2
11 6 8 13 -10 33 -13 13 -20 29 -17 35 4 6 34 16 66 23 61 12 64 15 54 42 -7
19 -7 19 -64 -4z"/>
<path d="M2273 2333 c-4 -10 -17 -31 -31 -47 -22 -27 -23 -31 -7 -42 10 -8 12
-14 6 -19 -6 -3 -18 -20 -27 -37 l-16 -31 61 6 61 5 0 -60 0 -61 23 29 c17 23
22 41 22 91 0 35 -3 63 -6 63 -3 0 -14 -9 -24 -20 -18 -20 -75 -28 -75 -10 0
14 47 43 58 36 6 -3 16 1 23 10 10 13 10 17 -2 25 -8 5 -19 9 -26 9 -18 0 -27
21 -12 30 7 5 22 4 33 -2 18 -9 18 -7 -3 16 -28 30 -49 33 -58 9z m17 -62 c0
-6 -4 -13 -10 -16 -5 -3 -10 1 -10 9 0 9 5 16 10 16 6 0 10 -4 10 -9z"/>
<path d="M470 2300 c-12 -22 -10 -23 38 -20 47 2 41 -24 -9 -40 -22 -8 -47
-23 -54 -33 -15 -22 -10 -42 7 -31 11 7 85 -13 105 -29 15 -11 33 -1 33 19 0
10 -12 14 -37 14 -21 0 -45 4 -52 9 -16 10 -12 12 72 43 21 8 39 18 40 23 1 5
-20 17 -48 27 -27 9 -58 22 -67 27 -14 9 -20 6 -28 -9z"/>
<path d="M2686 2238 c9 -58 35 -102 63 -106 19 -3 22 0 19 20 -2 15 -11 24
-26 26 -25 4 -27 8 -37 65 -8 52 -27 47 -19 -5z"/>
<path d="M2388 2188 c2 -29 8 -57 13 -62 6 -6 9 -6 10 0 0 5 2 23 5 39 4 29
-12 75 -26 75 -4 0 -5 -24 -2 -52z"/>
<path d="M2951 2134 c0 -11 3 -14 6 -6 3 7 2 16 -1 19 -3 4 -6 -2 -5 -13z"/>
<path d="M426 2124 c-11 -28 -7 -33 27 -28 68 10 117 -25 87 -61 -13 -16 -77
-12 -112 7 -15 7 -18 4 -18 -20 0 -28 1 -28 64 -30 57 -2 67 1 80 20 21 30 20
75 -1 86 -10 5 -36 13 -58 17 -22 4 -45 11 -51 16 -8 6 -14 4 -18 -7z"/>
<path d="M2272 2110 c0 -19 2 -27 5 -17 2 9 2 25 0 35 -3 9 -5 1 -5 -18z"/>
<path d="M2777 2123 c-12 -11 -8 -63 7 -91 8 -15 29 -41 48 -57 18 -17 39 -40
46 -50 11 -19 12 -18 6 5 -3 14 -21 41 -39 60 -45 48 -56 73 -49 109 6 29 -3
40 -19 24z"/>
<path d="M3354 2094 c-37 -55 -1 -134 61 -134 30 0 72 37 80 70 3 16 -2 37
-15 58 -17 28 -25 32 -65 32 -37 0 -47 -4 -61 -26z m107 -14 c22 -12 25 -42 6
-58 -7 -6 -31 -14 -54 -18 -35 -5 -43 -3 -52 14 -15 29 -15 30 22 52 36 23 50
24 78 10z"/>
<path d="M2940 2040 c0 -11 5 -20 10 -20 6 0 10 9 10 20 0 11 -4 20 -10 20 -5
0 -10 -9 -10 -20z"/>
<path d="M2730 2041 c0 -12 98 -158 111 -166 19 -12 8 17 -25 62 -18 27 -41
63 -50 81 -15 30 -36 43 -36 23z"/>
<path d="M3011 2034 c0 -11 3 -14 6 -6 3 7 2 16 -1 19 -3 4 -6 -2 -5 -13z"/>
<path d="M2274 1995 c0 -27 3 -40 8 -33 10 16 11 78 1 78 -5 0 -8 -20 -9 -45z"/>
<path d="M713 1948 c-20 -26 -26 -41 -15 -34 12 7 36 46 29 46 -3 0 -9 -6 -14
-12z"/>
<path d="M2271 1914 c0 -11 3 -14 6 -6 3 7 2 16 -1 19 -3 4 -6 -2 -5 -13z"/>
<path d="M1355 1891 c-9 -18 -11 -31 -5 -31 11 0 34 50 26 57 -2 3 -12 -9 -21
-26z"/>
<path d="M590 1890 c-9 -6 -10 -10 -3 -10 6 0 15 5 18 10 8 12 4 12 -15 0z"/>
<path d="M2919 1878 c16 -41 42 -87 52 -93 14 -9 11 2 -16 55 -26 51 -52 79
-36 38z"/>
<path d="M252 1830 c0 -14 2 -19 5 -12 2 6 2 18 0 25 -3 6 -5 1 -5 -13z"/>
<path d="M3642 1830 c0 -14 2 -19 5 -12 2 6 2 18 0 25 -3 6 -5 1 -5 -13z"/>
<path d="M2436 1688 c-9 -34 -7 -38 9 -32 16 6 21 54 6 54 -5 0 -11 -10 -15
-22z"/>
<path d="M1432 1675 c0 -16 2 -22 5 -12 2 9 2 23 0 30 -3 6 -5 -1 -5 -18z"/>
<path d="M2380 1620 c0 -6 -11 -22 -24 -35 -25 -25 -25 -25 -10 -82 28 -107
104 -200 157 -190 19 3 18 6 -15 20 -47 22 -74 61 -94 137 -12 50 -14 71 -5
106 13 52 13 54 1 54 -5 0 -10 -5 -10 -10z"/>
<path d="M3080 1588 c-19 -75 -70 -200 -111 -278 -42 -78 -147 -230 -159 -230
-14 0 -30 52 -30 97 0 34 6 53 25 75 40 47 43 77 10 105 -22 20 -33 23 -59 16
-17 -4 -43 -7 -58 -8 -16 0 -28 -3 -28 -6 0 -12 39 -17 79 -12 32 4 41 2 50
-15 12 -23 1 -65 -26 -94 -11 -13 -14 -31 -11 -68 3 -27 2 -50 -2 -50 -13 0
-20 -43 -9 -56 16 -20 2 -45 -52 -93 l-50 -44 -29 21 c-16 12 -34 22 -40 22
-5 0 -10 4 -10 9 0 15 21 25 29 14 9 -15 51 3 51 22 0 9 14 22 31 29 25 10 32
20 34 44 1 16 -1 36 -6 43 -6 10 -9 4 -9 -18 0 -28 -5 -35 -35 -47 -24 -10
-35 -22 -35 -35 0 -17 -6 -21 -36 -21 -19 0 -44 -5 -56 -11 -20 -11 -20 -11 2
-26 20 -14 20 -16 3 -28 -10 -7 -15 -17 -11 -21 4 -4 15 -1 23 6 21 18 35 2
28 -32 -12 -63 -266 -177 -466 -208 -173 -28 -402 0 -577 69 -193 77 -390 236
-522 422 -61 85 -139 242 -174 352 -33 102 -14 95 -205 67 -224 -33 -202 -26
-194 -68 14 -79 79 -262 130 -367 218 -454 630 -781 1096 -870 187 -35 472
-29 633 15 290 78 493 196 706 410 171 170 286 344 375 564 37 94 88 273 80
286 -2 4 -46 12 -97 19 -51 7 -115 16 -143 21 -27 5 -69 11 -92 14 l-42 6 -11
-42z m-2295 -127 c17 -52 17 -55 -1 -68 -33 -24 -44 -11 -23 29 20 37 -3 42
-82 15 -83 -27 -100 -52 -54 -77 33 -18 32 -32 -2 -28 -22 3 -30 12 -49 66
-17 47 -19 62 -9 58 19 -7 160 41 176 60 16 19 23 10 44 -55z m2516 16 c18
-12 40 -34 48 -48 13 -23 12 -30 -5 -65 -11 -23 -29 -42 -45 -48 -42 -14 -99
2 -136 39 -41 41 -44 81 -8 119 32 35 97 36 146 3z m-2582 -61 c13 -15 -4 -26
-40 -26 -17 0 -18 3 -9 20 12 23 33 26 49 6z m107 -64 c14 -9 34 -47 34 -65 0
-7 -11 -19 -25 -25 -20 -9 -25 -9 -25 1 0 7 5 18 11 24 7 7 9 19 5 28 -10 28
-43 0 -50 -44 -7 -44 -35 -71 -76 -71 -34 0 -47 10 -60 45 -10 26 -9 32 10 47
31 25 54 24 40 -2 -6 -11 -15 -20 -20 -20 -13 0 -13 -27 0 -35 17 -11 50 5 50
24 0 35 23 83 44 91 27 11 48 12 62 2z m2358 -56 c41 -17 76 -61 76 -94 0 -28
-45 -112 -60 -112 -6 0 -10 4 -10 9 0 13 -129 81 -152 81 -24 0 -23 14 8 67
37 62 75 76 138 49z m-2254 -118 c34 -47 34 -57 -3 -78 -31 -17 -43 -9 -26 18
16 26 4 76 -17 68 -9 -3 -23 -6 -32 -6 -25 0 -92 -66 -92 -89 0 -13 12 -27 31
-37 21 -10 28 -19 21 -26 -13 -13 -68 15 -82 43 -18 33 -2 76 43 114 33 28 49
35 84 35 39 0 46 -4 73 -42z m2132 -89 c46 -17 93 -28 106 -26 27 5 27 4 -1
-37 l-22 -34 -24 19 c-38 31 -79 22 -65 -15 6 -15 41 -32 57 -28 18 5 4 -20
-37 -64 -43 -48 -44 -49 -78 -36 -51 18 -67 15 -39 -8 13 -11 29 -20 37 -20
20 0 17 -10 -8 -37 -25 -26 -38 -29 -38 -9 0 8 -31 43 -70 78 -38 35 -70 68
-69 73 0 13 48 50 76 59 27 9 73 -31 73 -62 0 -15 11 -22 46 -31 85 -22 81 20
-12 130 -45 52 -55 79 -30 79 8 0 52 -14 98 -31z m-2063 -8 c25 -34 27 -53 6
-45 -17 7 -110 -58 -126 -88 -8 -16 -8 -24 4 -35 13 -13 18 -13 44 1 17 8 50
35 75 59 l45 43 69 -68 c58 -57 67 -71 58 -86 -6 -9 -22 -18 -35 -19 -13 -1
-18 0 -11 3 6 3 12 14 12 24 0 31 -22 40 -47 20 -29 -23 -30 -44 -3 -37 24 6
25 -1 4 -31 -19 -27 -34 -28 -34 -2 0 27 -12 25 -40 -4 -30 -33 -21 -56 25
-56 39 0 46 -14 15 -30 -25 -13 -43 -4 -90 45 -34 35 -34 37 -15 47 35 19 127
117 123 130 -9 25 -33 18 -93 -27 -72 -54 -104 -58 -134 -16 -12 16 -21 34
-21 40 0 16 58 78 96 101 19 13 34 30 34 41 0 27 15 23 39 -10z m1791 -3 c0
-5 -4 -8 -10 -8 -5 0 -10 10 -10 23 0 18 2 19 10 7 5 -8 10 -18 10 -22z m29
-217 c15 -24 15 -24 -9 -19 -14 3 -32 9 -41 12 -23 10 -51 -21 -44 -48 9 -30
37 -66 68 -90 23 -17 30 -18 54 -7 l28 13 -34 29 -34 28 24 20 c31 26 31 26
52 -10 23 -42 22 -58 -10 -91 -20 -21 -36 -28 -66 -28 -34 0 -46 6 -79 40 -31
34 -38 48 -38 81 0 81 89 129 129 70z m-1574 -26 c16 -13 27 -25 25 -27 -3 -2
-14 -8 -24 -14 -11 -5 -39 -36 -64 -67 -41 -51 -44 -59 -31 -73 12 -12 21 -13
44 -4 35 13 43 6 20 -20 -26 -28 -44 -25 -93 18 l-43 37 56 60 c31 33 59 72
62 88 7 33 10 33 48 2z m1415 -82 c0 -16 -5 -16 -30 -3 -37 20 -32 -11 14 -80
25 -38 52 -71 59 -74 8 -3 4 -11 -12 -26 -27 -24 -43 -22 -51 6 -9 33 -74 134
-86 134 -7 0 -15 -11 -18 -25 -7 -29 -45 -42 -75 -25 -17 9 -22 8 -28 -6 -8
-22 22 -44 58 -44 18 0 35 -9 48 -26 39 -50 21 -98 -40 -109 -31 -6 -36 -3
-46 18 -15 32 -6 40 21 22 32 -23 48 -19 44 12 -2 23 -9 28 -43 35 -47 10 -75
39 -75 79 0 24 7 33 36 46 35 17 36 17 55 -7 l19 -25 -6 32 c-6 30 -4 34 27
47 19 8 47 26 63 41 27 24 30 24 48 9 10 -10 18 -23 18 -31z m-1260 -40 c0
-15 -9 -60 -21 -100 -11 -40 -17 -78 -14 -83 15 -23 -8 -29 -36 -9 -29 20 -29
21 -12 50 16 27 16 30 1 46 -15 14 -19 14 -34 3 -9 -8 -20 -25 -25 -37 -7 -20
-12 -22 -29 -13 -25 13 -26 27 -2 34 10 3 47 35 82 71 35 36 70 65 77 65 7 0
13 -12 13 -27z m251 -84 c49 -18 60 -26 69 -55 16 -47 3 -100 -33 -136 -27
-26 -36 -30 -71 -25 -23 3 -54 10 -70 16 -27 11 -27 13 -13 29 18 20 47 121
47 164 0 34 -2 33 71 7z m726 -38 c33 -48 32 -123 -2 -156 -61 -62 -155 -5
-155 93 0 43 13 80 34 95 6 4 31 6 56 5 38 -3 48 -8 67 -37z m-489 -13 c14
-12 16 -44 3 -52 -5 -3 -16 5 -25 19 -9 14 -23 25 -31 25 -17 0 -30 -42 -20
-67 6 -17 7 -17 16 0 16 28 29 20 29 -18 0 -34 -12 -46 -25 -25 -13 22 -25 8
-25 -30 0 -46 13 -51 54 -19 32 25 44 19 28 -16 -11 -24 -16 -26 -75 -23 -60
3 -62 4 -59 28 2 14 5 63 7 110 3 47 5 85 5 86 1 6 108 -11 118 -18z m286 -19
c13 -37 0 -78 -29 -91 -27 -12 -33 -46 -13 -66 16 -16 -5 -32 -41 -32 -19 0
-22 4 -18 21 7 25 -10 137 -24 163 -15 27 5 37 66 34 43 -3 51 -6 59 -29z"/>
<path d="M3184 1450 c-34 -14 -37 -28 -11 -54 33 -33 102 -51 134 -37 38 18
27 52 -27 79 -47 24 -63 26 -96 12z"/>
<path d="M3083 1259 c-23 -23 -14 -34 58 -73 76 -40 97 -38 85 8 -12 48 -114
94 -143 65z"/>
<path d="M3010 1062 c0 -10 22 -32 32 -32 12 0 -2 28 -18 34 -8 3 -14 2 -14
-2z"/>
<path d="M2860 963 c0 -15 59 -67 67 -60 9 10 -30 61 -51 65 -9 2 -16 -1 -16
-5z"/>
<path d="M1331 666 c-8 -9 -11 -19 -7 -23 9 -9 29 13 24 27 -2 8 -8 7 -17 -4z"/>
<path d="M1620 568 c-6 -24 -15 -59 -21 -78 -12 -49 -12 -50 15 -50 54 0 91
114 50 154 -24 25 -32 20 -44 -26z"/>
<path d="M2272 598 c-17 -17 -15 -71 5 -113 19 -39 59 -58 74 -34 23 37 -2
128 -41 149 -23 13 -23 13 -38 -2z"/>
<path d="M2105 534 c8 -46 12 -51 26 -37 14 14 -1 65 -20 71 -11 4 -12 -4 -6
-34z"/>
<path d="M2488 1506 c-6 -14 -15 -26 -20 -26 -18 0 -7 -30 17 -46 32 -21 44
-11 19 17 -17 19 -18 21 -1 30 19 11 23 34 7 44 -5 3 -15 -5 -22 -19z"/>
<path d="M2320 1456 c0 -27 16 -44 23 -24 5 18 -3 48 -14 48 -5 0 -9 -11 -9
-24z"/>
<path d="M2282 1395 c0 -16 2 -22 5 -12 2 9 2 23 0 30 -3 6 -5 -1 -5 -18z"/>
<path d="M2281 1334 c0 -11 3 -14 6 -6 3 7 2 16 -1 19 -3 4 -6 -2 -5 -13z"/>
<path d="M2330 1330 c0 -6 22 -21 49 -33 l48 -22 2 -91 1 -91 -55 -56 c-30
-30 -59 -68 -65 -82 -12 -32 -13 -95 -2 -95 5 0 34 14 65 31 62 33 97 70 97
103 -1 19 -3 18 -28 -11 -29 -34 -122 -88 -122 -71 0 12 29 55 88 127 42 53
44 57 42 120 -3 91 -2 98 14 104 12 5 14 -10 13 -88 -2 -84 0 -93 13 -79 11
11 14 33 12 84 -1 39 1 70 5 70 4 0 21 -9 37 -19 22 -14 35 -17 47 -10 10 5
36 6 59 3 61 -10 52 17 -13 39 -68 22 -74 21 -53 -2 28 -31 1 -35 -46 -7 -24
13 -70 32 -103 41 -33 9 -70 23 -82 31 -15 9 -23 10 -23 4z"/>
<path d="M2703 1323 c-15 -6 -17 -33 -3 -33 5 0 18 -10 30 -22 11 -12 21 -20
22 -17 16 25 38 68 38 73 0 3 -7 6 -15 6 -8 0 -15 -5 -15 -10 0 -7 -6 -7 -19
0 -11 5 -21 10 -23 9 -2 0 -9 -3 -15 -6z"/>
<path d="M2317 1249 c-9 -34 -8 -49 3 -49 6 0 10 8 10 17 0 12 3 14 11 6 13
-13 -16 -77 -31 -68 -11 7 -70 -44 -70 -60 0 -7 -7 -18 -15 -25 -12 -10 -15
-7 -21 14 -8 34 -25 33 -45 -2 -20 -36 -87 -57 -124 -40 -24 11 -29 8 -63 -26
-24 -25 -33 -40 -24 -43 6 -3 12 -16 12 -29 0 -17 6 -24 19 -24 11 0 21 -9 24
-22 5 -18 8 -19 21 -9 20 17 46 7 46 -17 0 -16 6 -18 38 -16 20 2 42 3 49 3
13 1 73 114 73 138 0 29 32 82 76 125 52 52 64 93 36 127 l-19 24 -6 -24z
m-133 -226 c-9 -40 -23 -51 -37 -32 -9 11 -22 15 -45 11 -18 -2 -32 0 -32 6 0
12 24 22 55 22 13 0 27 5 30 10 3 6 13 10 21 10 11 0 13 -7 8 -27z m-154 -2
c0 -5 -7 -14 -15 -21 -12 -10 -15 -10 -15 2 0 8 3 18 7 21 9 10 23 9 23 -2z
m-5 -50 c3 -5 1 -12 -5 -16 -5 -3 -10 1 -10 9 0 18 6 21 15 7z m65 -11 c13
-11 28 -20 33 -20 10 0 36 -30 37 -42 0 -15 -31 -8 -36 7 -4 8 -15 15 -25 15
-11 0 -23 8 -26 18 -4 9 -14 22 -22 29 -14 11 -14 12 0 13 9 0 26 -9 39 -20z
m104 1 c3 -5 0 -13 -7 -19 -15 -13 -42 1 -33 17 9 13 33 15 40 2z"/>
<path d="M2260 1219 c-6 -11 -10 -25 -7 -32 2 -6 9 3 15 21 12 36 8 42 -8 11z"/>
<path d="M2401 984 c0 -11 3 -14 6 -6 3 7 2 16 -1 19 -3 4 -6 -2 -5 -13z"/>
<path d="M1938 133 c6 -2 18 -2 25 0 6 3 1 5 -13 5 -14 0 -19 -2 -12 -5z"/>
</g>
</svg>
